HIERARCHY
ROOT Hips
{
  OFFSET -125.086 92.215 135.881
  CHANNELS 6 Xposition Yposition Zposition Zrotation Xrotation Yrotation
  JOINT LeftUpLeg
  {
    OFFSET 8.64259 1.95398 -2.38835
    CHANNELS 3 Zrotation Xrotation Yrotation
    JOINT LeftLeg
    {
      OFFSET 43.7702 0 0
      CHANNELS 3 Zrotation Xrotation Yrotation
      JOINT LeftFoot
      {
        OFFSET 40.6238 0 0
        CHANNELS 3 Zrotation Xrotation Yrotation
        JOINT LeftToeBase
        {
          OFFSET 12.7242 0 0
          CHANNELS 3 Zrotation Xrotation Yrotation
          End Site
          {
            OFFSET 0 0 0
          }
        }
      }
    }
  }
  JOINT RightUpLeg
  {
    OFFSET -8.2249 1.95398 -2.59336
    CHANNELS 3 Zrotation Xrotation Yrotation
    JOINT RightLeg
    {
      OFFSET 43.5653 0 0
      CHANNELS 3 Zrotation Xrotation Yrotation
      JOINT RightFoot
      {
        OFFSET 40.6238 0 0
        CHANNELS 3 Zrotation Xrotation Yrotation
        JOINT RightToeBase
        {
          OFFSET 12.7242 0 0
          CHANNELS 3 Zrotation Xrotation Yrotation
          End Site
          {
            OFFSET 0 0 0
          }
        }
      }
    }
  }
  JOINT Spine
  {
    OFFSET 0.165834 0.87714 6.61349
    CHANNELS 3 Zrotation Xrotation Yrotation
    JOINT Spine1
    {
      OFFSET 7.38963 1.71661e-005 0
      CHANNELS 3 Zrotation Xrotation Yrotation
      JOINT Spine2
      {
        OFFSET 11.9445 1.14441e-005 0
        CHANNELS 3 Zrotation Xrotation Yrotation
        JOINT Spine3
        {
          OFFSET 14.7254 4.19617e-005 0
          CHANNELS 3 Zrotation Xrotation Yrotation
          JOINT Spine4
          {
            OFFSET 10.9679 0 0
            CHANNELS 3 Zrotation Xrotation Yrotation
            JOINT RightShoulder
            {
              OFFSET 2.46616 -1.6653 3.69651
              CHANNELS 3 Zrotation Xrotation Yrotation
              JOINT RightArm
              {
                OFFSET 13.0012 0 0
                CHANNELS 3 Zrotation Xrotation Yrotation
                JOINT RightForeArm
                {
                  OFFSET 28.7848 1.52588e-005 0
                  CHANNELS 3 Zrotation Xrotation Yrotation
                  JOINT RightHand
                  {
                    OFFSET 26.5688 1.52588e-005 0
                    CHANNELS 3 Zrotation Xrotation Yrotation
                    End Site
                    {
                      OFFSET 0 0 0
                    }
                  }
                }
              }
            }
            JOINT LeftShoulder
            {
              OFFSET 2.38034 -1.29275 -3.7523
              CHANNELS 3 Zrotation Xrotation Yrotation
              JOINT LeftArm
              {
                OFFSET 16.3182 6.10352e-005 0
                CHANNELS 3 Zrotation Xrotation Yrotation
                JOINT LeftForeArm
                {
                  OFFSET 27.0901 0 0
                  CHANNELS 3 Zrotation Xrotation Yrotation
                  JOINT LeftHand
                  {
                    OFFSET 24.5451 1.52588e-005 0
                    CHANNELS 3 Zrotation Xrotation Yrotation
                    End Site
                    {
                      OFFSET 0 0 0
                    }
                  }
                }
              }
            }
            JOINT Neck
            {
              OFFSET 5.0226 -0.0266342 0
              CHANNELS 3 Zrotation Xrotation Yrotation
              JOINT Head
              {
                OFFSET 6.69363 2.86102e-005 0
                CHANNELS 3 Zrotation Xrotation Yrotation
                End Site
                {
                  OFFSET 0 0 0
                }
              }
            }
          }
        }
      }
    }
  }
}
MOTION
Frames:	6
Frame Time:	0.0416667
-129.817 96.7505 -20.271 117.786 -84.1958 119.176 -178.855 3.28978 86.5553 -18.0529 20.3095 4.01277 61.1155 7.35829 14.1439 36.7273 -0.671136 -0.195363 174.175 6.7911 87.4839 -24.4911 0.610761 0.278244 60.2794 0.833325 12.9388 41.9519 -2.11246 -3.26518 -0.27364 7.36307 -90.5937 12.1427 -0.824765 -1.09357 0.471566 -0.872084 -1.05622 -22.0607 -0.457998 -1.29086 -2.04807 -0.458003 -1.29086 114.155 -56.3908 -64.9249 22.1555 5.74964 -13.9424 -1.75862 -26.386 -13.6244 -13.5129 -0.841248 2.10249 -78.5914 -42.6897 95.6148 -45.5285 -6.27363 -19.4634 4.1567 58.8117 -1.66769 -4.34091 0.0268432 -11.1157 2.70767 -0.600836 -15.922 -16.1194 0.528856 13.6572 
-130.613 97.0841 -20.2028 113.912 -83.3562 115.055 -178.251 2.1885 87.0069 -15.7115 21.5414 4.02034 60.4992 6.52615 12.9303 35.5946 -0.577179 -0.100916 174.294 5.23621 87.765 -21.9914 3.41126 0.331238 60.7194 1.16608 14.6821 38.2553 -1.43352 -3.09834 -0.374767 7.23288 -90.4453 12.4045 -0.956219 -0.779981 0.733669 -0.989618 -0.737145 -21.8012 -0.67761 -1.03129 -1.78858 -0.677614 -1.0313 114.786 -56.4666 -64.041 24.419 5.8732 -12.6773 -2.56017 -25.2592 -14.7495 -13.5159 -0.82205 1.93146 -78.0223 -42.3643 96.5598 -45.7244 -6.08249 -21.3038 3.35602 60.1929 0.0102401 -2.81173 -0.0636334 -11.3737 0.131676 -0.24319 -14.6211 -15.2066 0.554162 12.6389 
-131.165 97.2452 -20.0783 109.831 -84.3441 110.792 -178.036 1.65245 87.125 -13.1476 20.9068 4.00877 59.9394 5.87701 12.1472 35.0258 -0.513934 -0.320993 174.68 4.90192 87.9925 -19.9241 4.2751 0.095557 61.0411 1.35247 16.1817 35.6748 -0.952618 -3.33505 -0.252011 6.99175 -90.3454 12.8881 -0.665819 -0.609899 1.21725 -0.692018 -0.580016 -21.3175 -0.451742 -0.781805 -1.30484 -0.451742 -0.781808 114.662 -56.342 -64.1919 26.0007 6.11395 -10.3859 -3.56315 -24.6553 -16.5001 -13.7149 -0.824013 1.84169 -77.813 -42.6906 96.9084 -45.7654 -6.71397 -21.586 3.91281 60.6738 0.0500041 -3.55764 -0.017453 -11.4364 -0.300218 -0.107794 -11.4425 -17.345 0.329213 9.48134 
-131.627 97.3908 -19.9627 113.13 -85.3344 113.81 -177.336 0.409101 87.3847 -10.5344 20.1563 3.55512 59.7668 5.51058 11.0504 33.4832 -0.361849 -0.563316 175.118 4.27833 88.1889 -18.4246 3.54994 -0.36345 60.9492 1.41381 15.9546 34.0677 -0.656001 -3.31071 -0.151241 6.86988 -90.2483 13.1335 -0.419738 -0.445326 1.46258 -0.438927 -0.426428 -21.0722 -0.266496 -0.550882 -1.0596 -0.266501 -0.550892 114.401 -56.3707 -64.5699 26.7348 5.83968 -9.26469 -3.78409 -25.6288 -16.8371 -13.7426 -0.797692 1.60907 -77.0052 -43.4219 98.241 -44.5555 -6.42502 -21.4448 3.75317 59.3919 -0.714562 -2.88548 -0.0592758 -11.2326 -0.64699 0.291315 -11.1485 -17.9602 0.498201 10.3137 
-132.101 97.4016 -19.8919 112.752 -86.1138 113.315 -176.601 0.117789 87.8562 -9.26191 19.8771 3.06052 59.7547 5.16348 10.52 33.1814 -0.285341 -1.18982 175.448 4.19134 88.4829 -17.5673 2.94299 -0.577469 60.9924 1.47288 15.5903 33.7039 -0.614604 -2.80587 -0.0887682 6.76673 -90.2005 13.3398 -0.27296 -0.366723 1.66881 -0.288839 -0.354361 -20.866 -0.150127 -0.431806 -0.853363 -0.150133 -0.431812 114.151 -56.1987 -64.8904 27.2359 5.41593 -9.44429 -3.16746 -26.603 -15.6025 -13.8358 -0.825315 1.79182 -76.6692 -44.0424 98.7814 -44.0347 -6.29329 -20.9855 4.47787 56.6298 -2.02672 -1.20425 -0.161335 -11.2297 -1.57945 0.226021 -11.8458 -16.1361 0.355184 12.5554 
-132.527 97.4122 -20.0201 114.661 -86.8546 115.305 -176.198 0.453028 88.2498 -9.31915 19.5853 2.86974 59.5748 4.87073 10.4848 33.8425 -0.332975 -1.40624 175.416 4.31099 88.704 -17.2437 2.43131 -0.367674 61.4806 1.1605 15.3023 32.1557 -0.381228 -2.13855 -0.0505598 6.67057 -90.1757 13.5324 -0.185393 -0.327942 1.86139 -0.199647 -0.319467 -20.6735 -0.0782625 -0.368502 -0.660816 -0.0782717 -0.368507 113.589 -55.903 -65.6384 27.5205 5.06218 -9.74775 -2.55948 -28.9363 -13.8412 -12.5513 -0.759387 1.90491 -76.5223 -44.6579 99.005 -43.6273 -6.81294 -20.3854 5.24641 55.617 -2.79458 0.540526 -0.261404 -11.0826 -1.53298 0.352866 -11.5938 -16.0382 0.416838 12.9649 
